<?xml version="1.0" encoding="UTF-8"?>
<svg id="Layer_1" xmlns="http://www.w3.org/2000/svg" version="1.1" viewBox="0 0 3000 3000">
  <!-- Generator: Adobe Illustrator 30.5.1, SVG Export Plug-In . SVG Version: 2.1.4 Build 3)  -->
  <defs>
    <style>
      .st0 {
        fill: #fff;
      }
    </style>
  </defs>
  <rect width="3000" height="3000"/>
  <g>
    <path class="st0" d="M1980.5,2163.72c-20.39,30.58-51.94,48.34-87.79,50.29-41.57,2.26-79.43-16.34-103.02-50.44l-176.31-259.59c49.72-45.05,88.95-97.45,119.75-159.03l153.52,224.78,116.36-170.06,241.61-354.8c14.37-21.66,29.37-40.17,48.68-57.37,32.86-26.76,71.78-46.09,115.23-48.05l112.62-.81v1040.62s-44.68.05-44.68.05c-46.63-3.34-89.55-25.21-120.65-59.5-31.37-34.59-45.89-77.78-45.9-124.29l-.03-193.1-.08-327.94c0-.79.76-3.74.31-3.33-.67.62-2.59,2.26-3.19,3.16l-326.44,489.42Z"/>
    <path class="st0" d="M2493.52,1216.88l-92.75-91.72-87.12,88.24c-79.34,74.12-178.01,122.11-285.52,137.79l-90.07,17.18c-66.95,12.78-153.59,53.25-203.58,101.37l-83.45,80.32c-45.34,43.64-95.67,79.82-152.07,107.41-55.58,27.19-113.87,39.55-175.68,37.86-53.82-1.47-105.33-12.1-152.23-38.48-29.94-16.84-55.74-37.15-76.97-64.44-40.46-52.02-56.08-119.08-43.96-183.95,5.66-30.28,16.8-56.44,30.64-84.17-42.14,12.47-81.88,41.2-113.57,69.19-29.31,25.88-55.6,52.81-82.27,81.48-89.34,96.05-200.3,200.28-335.43,216.19-111.26,13.1-213.2-23.96-292.7-101.89-.79-.41.79-1.72,1.77-1.79,46.75,18.98,94.7,26.52,144.91,26.23,46.77-.27,91.13-6.73,134.84-23.04,21.93-8.19,42.49-16.55,63.04-28.02,46.39-25.9,87.56-57.44,126.97-94.12l56.34-56.42,27.71-29.33,70.47-70.4c32.6-29.9,67.72-54.35,106.79-74.94,35.7-18.82,72.52-31.57,112.35-38.64,51.06-9.06,102.34-4.2,150.41,14.71,55.03,21.65,94.89,63.4,117.96,116.76-62.85-36.28-142.05-22.03-180.85,35.61-33.57,49.87-30.28,120.11,11.38,163.9,23.71,24.91,55.52,38.5,89.43,43.32,72.8,10.35,143.28-6.2,204.54-46.35,32.51-21.3,62.3-44.75,90.43-71.67l36.51-34.93,39.7-38.17c81.34-78.2,189.38-118.82,299.03-138.71l79.87-14.49c71.6-15.02,136.21-47.47,190.53-96.69l69.84-69.47,16.79-17.96-12.36-11.21-76.38-75.53,292.35-67.03"/>
    <path class="st0" d="M1787.32,1243.49c-77.16,26.54-173.38,84.03-227.41,143.98l-50.8,56.37c4.49-98.11-12.82-187.67-79.24-259.97-30.87-33.61-66.67-59.47-108.45-78.19-48.95-21.93-101.2-34.93-155.65-34.98l-351.64-.3.44,190.57-86.96,92.48c-38.26,40.78-77.99,78.19-123.72,112.71l.47-456.1c.03-34.18,16.04-66.28,40.8-87.71,20.35-17.62,45.43-31.18,73.25-31.17l466.9.09c91.46.02,180.51,26.05,260.58,68.71,51.12,27.23,96.64,62.07,136.07,103.99,36.94,39.27,68.1,82.36,88.67,131.93l18.9,45.54,130.87-131.62,15.55-16.33c-14.23-34.64-8.45-74.61,16.28-102.79,21.37-24.34,50.26-36.29,82.74-34.73,50.61,2.43,90.29,41.95,94.04,92.72,2.65,35.8-13.93,69.98-42.13,89.27-30.6,20.94-69.07,23.08-102.83,6.12l-42.33,43.51-54.42,55.9Z"/>
    <path class="st0" d="M604.38,2380.31l.05-613.62c52.57-12.41,102.01-33.53,146.82-63.47l62.85-47.15.04,160.08,346.78-.68c59.93-.12,116.52-17.26,171.27-39.01l30.37-.95c73.95-7.46,145.03-30.35,209.13-67.85,46.84-27.26,86.02-61.03,122.92-103.57-33.54,145.34-136.54,257.76-266.54,326.61-80.05,39.64-167.24,63.67-257.39,63.82l-356.14.6-.41,218.09c-.09,46.96-22.68,88.29-55.58,119.99-30.57,28.05-68.53,44.71-110.23,46.86l-43.94.24Z"/>
    <path class="st0" d="M1291.99,2380.28l-43.08.16-.06-302.53c59.26-6.42,115.78-21.53,169.45-44.95l41.36-20.86-.83,207.42c-.13,31.25-12.38,60.08-29.83,84.95-31.6,45.02-81.16,72.97-137,75.81Z"/>
    <path class="st0" d="M1836.67,1678.09c-30.91-19.31-47.13-53.39-46.42-88.18.71-34.61,19.51-67.79,50.33-85.38,28.4-16.21,61.95-18.48,91.52-3.11l30.38-31.06,73.68-74.48c27.29-4.21,53.64-9.65,80.28-17.97l44.94-14.03-43.83,45.99-36.49,38.12-48.78,50.15-50.67,52.21c22.46,47.29,5.03,104.44-41.08,130.31-32.05,17.97-71.85,17.44-103.86-2.56Z"/>
  </g>
</svg>